<svg width="24" height="24" viewBox="0 0 24 24" fill="none" xmlns="http://www.w3.org/2000/svg">
    <path d="M15 15.75H9C8.60218 15.75 8.22064 15.592 7.93934 15.3107C7.65804 15.0294 7.5 14.6478 7.5 14.25V12.75C7.5 12.3522 7.65804 11.9706 7.93934 11.6893C8.22064 11.408 8.60218 11.25 9 11.25H15C15.3978 11.25 15.7794 11.408 16.0607 11.6893C16.342 11.9706 16.5 12.3522 16.5 12.75V14.25C16.5 14.6478 16.342 15.0294 16.0607 15.3107C15.7794 15.592 15.3978 15.75 15 15.75ZM9 12.75V14.25H15V12.75H9Z" fill="#047857"/>
    <path d="M21 3H3C2.60218 3 2.22064 3.15804 1.93934 3.43934C1.65804 3.72064 1.5 4.10218 1.5 4.5V7.5C1.5 7.89782 1.65804 8.27936 1.93934 8.56066C2.22064 8.84196 2.60218 9 3 9V21C3 21.3978 3.15804 21.7794 3.43934 22.0607C3.72064 22.342 4.10218 22.5 4.5 22.5H19.5C19.8978 22.5 20.2794 22.342 20.5607 22.0607C20.842 21.7794 21 21.3978 21 21V9C21.3978 9 21.7794 8.84196 22.0607 8.56066C22.342 8.27936 22.5 7.89782 22.5 7.5V4.5C22.5 4.10218 22.342 3.72064 22.0607 3.43934C21.7794 3.15804 21.3978 3 21 3ZM19.5 21H4.5V9H19.5V21ZM21 7.5H3V4.5H21V7.5Z" fill="#047857"/>
</svg>
