<svg width="24" height="24" viewBox="0 0 24 24" fill="none" xmlns="http://www.w3.org/2000/svg">
<path d="M21.0754 14.1751L9.82539 2.92514C7.95039 0.975138 4.87539 0.975138 2.92539 2.85014C0.975391 4.72514 0.975391 7.87514 2.92539 9.75014L3.00039 9.82514L5.10039 12.0001L6.15039 10.9501L3.97539 8.77514C2.70039 7.50014 2.70039 5.32514 3.97539 4.05014C5.25039 2.77514 7.42539 2.70014 8.70039 3.97514C8.70039 3.97514 8.70039 3.97514 8.77539 4.05014L19.9504 15.2251C21.3004 16.5001 21.3004 18.6751 20.0254 19.9501C18.7504 21.3001 16.5754 21.3001 15.3004 20.0251C15.3004 20.0251 15.3004 20.0251 15.2254 19.9501L9.67539 14.4001C8.92539 13.6501 9.00039 12.4501 9.67539 11.7751C10.4254 11.1001 11.5504 11.1001 12.3004 11.7751L15.3754 14.8501L16.4254 13.8001L13.2754 10.6501C11.9254 9.37514 9.82539 9.45014 8.55039 10.8001C7.35039 12.0751 7.35039 14.1001 8.55039 15.4501L14.1754 21.0751C16.0504 23.0251 19.1254 23.0251 21.0754 21.1501C23.0254 19.2751 23.0254 16.1251 21.0754 14.1751C21.0754 14.1751 21.0754 14.2501 21.0754 14.1751Z" fill="#047857"/>
</svg>