<svg width="18" height="18" viewBox="0 0 18 18" fill="none" xmlns="http://www.w3.org/2000/svg">
    <path d="M4.5 9L5.28356 8.19562L8.4375 11.3344L8.4375 4.5L9.5625 4.5L9.5625 11.3344L12.6973 8.19562L13.5 9L9 13.5L4.5 9Z" fill="#2978D3"/>
    <path d="M9 16.875C7.44248 16.875 5.91993 16.4131 4.62489 15.5478C3.32985 14.6825 2.32049 13.4526 1.72445 12.0136C1.12841 10.5747 0.972461 8.99127 1.27632 7.46367C1.58018 5.93607 2.3302 4.53288 3.43154 3.43154C4.53288 2.3302 5.93607 1.58018 7.46367 1.27632C8.99127 0.972461 10.5747 1.12841 12.0136 1.72445C13.4526 2.32049 14.6825 3.32985 15.5478 4.62489C16.4131 5.91993 16.875 7.44248 16.875 9C16.8727 11.0879 16.0422 13.0895 14.5659 14.5659C13.0895 16.0422 11.0879 16.8727 9 16.875ZM9 2.25C7.66498 2.25 6.35994 2.64588 5.24991 3.38758C4.13987 4.12928 3.27471 5.18349 2.76382 6.41689C2.25293 7.65029 2.11925 9.00749 2.3797 10.3169C2.64015 11.6262 3.28303 12.829 4.22703 13.773C5.17104 14.717 6.37377 15.3599 7.68315 15.6203C8.99252 15.8808 10.3497 15.7471 11.5831 15.2362C12.8165 14.7253 13.8707 13.8601 14.6124 12.7501C15.3541 11.6401 15.75 10.335 15.75 9C15.748 7.21042 15.0362 5.49471 13.7707 4.22929C12.5053 2.96386 10.7896 2.25204 9 2.25Z" fill="#2978D3"/>
</svg>
