<svg width="24" height="24" viewBox="0 0 24 24" fill="none" xmlns="http://www.w3.org/2000/svg">
<path d="M19.5 22.5H10.5C10.1022 22.5 9.72064 22.342 9.43934 22.0607C9.15804 21.7794 9 21.3978 9 21V18.75H10.5V21H19.5V3H10.5V5.25H9V3C9 2.60218 9.15804 2.22064 9.43934 1.93934C9.72064 1.65804 10.1022 1.5 10.5 1.5H19.5C19.8978 1.5 20.2794 1.65804 20.5607 1.93934C20.842 2.22064 21 2.60218 21 3V21C21 21.3978 20.842 21.7794 20.5607 22.0607C20.2794 22.342 19.8978 22.5 19.5 22.5Z" fill="white"/>
<path d="M10.9425 15.4425L13.6275 12.75H3V11.25H13.6275L10.9425 8.5575L12 7.5L16.5 12L12 16.5L10.9425 15.4425Z" fill="white"/>
</svg>