<svg width="24" height="24" viewBox="0 0 24 24" fill="none" xmlns="http://www.w3.org/2000/svg">
<path d="M17.25 9V4.5H15.75V9C15.75 9.99456 15.3549 10.9484 14.6517 11.6517C13.9484 12.3549 12.9946 12.75 12 12.75C11.0054 12.75 10.0516 12.3549 9.34835 11.6517C8.64509 10.9484 8.25 9.99456 8.25 9V3H12.4394L10.7198 4.71975C10.6501 4.78936 10.5948 4.87202 10.5571 4.963C10.5194 5.05399 10.5 5.15151 10.5 5.25C10.5 5.34849 10.5194 5.44601 10.5571 5.537C10.5948 5.62798 10.6501 5.71064 10.7198 5.78025L11.6894 6.75L9.96975 8.46975L11.0302 9.53025L13.2803 7.28025C13.3499 7.21064 13.4052 7.12798 13.4429 7.037C13.4806 6.94601 13.5 6.84849 13.5 6.75C13.5 6.65151 13.4806 6.55399 13.4429 6.463C13.4052 6.37202 13.3499 6.28936 13.2803 6.21975L12.3106 5.25L14.7803 2.78025C14.8851 2.67536 14.9565 2.54174 14.9854 2.39627C15.0144 2.25081 14.9995 2.10003 14.9428 1.96301C14.886 1.82598 14.7899 1.70886 14.6666 1.62645C14.5433 1.54404 14.3983 1.50003 14.25 1.5H7.5C7.30109 1.5 7.11032 1.57902 6.96967 1.71967C6.82902 1.86032 6.75 2.05109 6.75 2.25V9C6.7523 10.2612 7.20817 11.4794 8.03435 12.4323C8.86053 13.3851 10.0019 14.009 11.25 14.19V21H7.5V22.5H16.5V21H12.75V14.19C13.9981 14.009 15.1395 13.3851 15.9656 12.4323C16.7918 11.4794 17.2477 10.2612 17.25 9Z" fill="#047857"/>
</svg>