<svg width="64" height="64" viewBox="0 0 64 64" fill="none" xmlns="http://www.w3.org/2000/svg">
    <path d="M25.6395 42.8351L34.1035 34.3711L29.6278 29.8954L21.1638 38.3594L25.6395 42.8351Z" fill="#34D399"/>
    <path d="M22.777 35.7539L0 58.531L2.73513 61.2662L15.1178 50.8716L25.5123 38.489L22.777 35.7539Z" fill="#059669"/>
    <path d="M5.46992 63.9988L28.2461 41.2227L25.5109 38.4875L2.73476 61.2637L5.46992 63.9988Z" fill="#065F46"/>
    <path d="M29.7829 5.87075C21.9552 13.6985 21.9552 26.3897 29.7829 34.2172L45.9455 22.0332L58.1295 5.87062C50.3018 -1.95689 37.6107 -1.95689 29.7829 5.87075Z" fill="#A7F3D0"/>
    <path d="M58.1298 5.87109L29.7832 34.2176C37.611 42.0454 50.3021 42.0454 58.1296 34.2176C65.9571 26.3899 65.9574 13.6987 58.1298 5.87109Z" fill="#6EE7B7"/>
    <path d="M55.1464 8.85547L32.7676 31.2343C38.9472 37.4139 48.9667 37.4139 55.1464 31.2343C61.326 25.0546 61.3259 15.0351 55.1464 8.85547Z" fill="white"/>
    <path d="M55.1462 8.85348C48.9667 2.67384 38.9471 2.67384 32.7674 8.85348C26.5883 15.0326 26.5879 25.0517 32.7665 31.2313C37.2989 35.7636 45.9829 34.4279 52.1623 28.2483C58.3418 22.0689 59.6777 13.385 55.1462 8.85348Z" fill="#ECFDF5"/>
</svg>
