<svg width="64" height="64" viewBox="0 0 64 64" fill="none" xmlns="http://www.w3.org/2000/svg">
    <path d="M44.5081 26.6195V11.7148H40.3398V35.5821L50.114 32.9347C49.239 30.1113 47.1753 27.8107 44.5081 26.6195Z" fill="#A7F3D0"/>
    <path d="M42.8912 26.6195V11.7148H36.1722V26.6195C33.5049 27.8108 31.4413 30.1113 30.5664 32.9347L40.3405 35.5821L46.3197 32.9347C45.786 30.1113 44.5233 27.8107 42.8912 26.6195Z" fill="#D1FAE5"/>
    <path d="M50.114 32.9336H46.319L40.3398 46.1956C45.9906 46.1956 50.5706 41.6143 50.5706 35.9648C50.5706 34.9086 50.4105 33.8906 50.114 32.9336Z" fill="#059669"/>
    <path d="M46.3193 32.9336H30.566C30.2695 33.8906 30.1094 34.9085 30.1094 35.9648C30.1094 41.6143 34.6892 46.1956 40.3401 46.1956C43.7976 46.1956 46.5999 41.6143 46.5999 35.9648C46.5999 34.9086 46.5019 33.8906 46.3193 32.9336Z" fill="#34D399"/>
    <path d="M20.5608 0H17.1191V61.3526H20.5608V0Z" fill="#10B981"/>
    <path d="M45.8329 21.2433H10.899C10.3506 21.2433 9.90625 20.7989 9.90625 20.2506C9.90625 19.7022 10.3506 19.2578 10.899 19.2578H45.8327C46.3811 19.2578 46.8255 19.7022 46.8255 20.2506C46.8256 20.7989 46.3813 21.2433 45.8329 21.2433Z" fill="#6EE7B7"/>
    <path d="M49.7569 43.2199H10.899C10.3506 43.2199 9.90625 42.7755 9.90625 42.2271C9.90625 41.6788 10.3506 41.2344 10.899 41.2344H49.7569C50.3052 41.2344 50.7496 41.6788 50.7496 42.2271C50.7496 42.7755 50.3051 43.2199 49.7569 43.2199Z" fill="#6EE7B7"/>
    <path d="M18.8407 22.9002C20.3028 22.9002 21.4881 21.7149 21.4881 20.2528C21.4881 18.7907 20.3028 17.6055 18.8407 17.6055C17.3786 17.6055 16.1934 18.7907 16.1934 20.2528C16.1934 21.7149 17.3786 22.9002 18.8407 22.9002Z" fill="#064E3B"/>
    <path d="M18.8406 44.8726C20.3026 44.8726 21.4879 43.6874 21.4879 42.2254C21.4879 40.7633 20.3026 39.5781 18.8406 39.5781C17.3786 39.5781 16.1934 40.7633 16.1934 42.2254C16.1934 43.6874 17.3786 44.8726 18.8406 44.8726Z" fill="#064E3B"/>
    <path d="M48.8006 58.707L52.1709 61.3544L50.1244 64.0018H17.5168L15.5312 61.3544L18.8405 58.707H48.8006Z" fill="#065F46"/>
    <path d="M44.7013 12.7082H35.981C35.4327 12.7082 34.9883 12.2638 34.9883 11.7154C34.9883 11.167 35.4327 10.7227 35.981 10.7227H44.7013C45.2497 10.7227 45.694 11.167 45.694 11.7154C45.694 12.2638 45.2497 12.7082 44.7013 12.7082Z" fill="#6EE7B7"/>
    <path d="M18.8397 58.707L17.5159 64.0018H13.5449L14.8685 58.707H18.8397Z" fill="#047857"/>
    <path d="M52.7719 58.707L54.0955 64.0018H50.1245L48.8008 58.707H52.7719Z" fill="#064E3B"/>
</svg>
