<svg width="40" height="40" viewBox="0 0 40 40" fill="none" xmlns="http://www.w3.org/2000/svg">
<g clip-path="url(#clip0)">
<path d="M27.7769 12.2227L16.4799 22.3395L1.81836 38.1812C2.99207 39.3549 4.54816 39.9998 6.20374 39.9998H6.24249C7.91333 39.9897 9.49628 39.3213 10.6996 38.1183L32.1858 16.6318L27.7769 12.2227Z" fill="#6EE7B7"/>
<path d="M23.368 7.81348L16.092 15.0895L11.3151 20.9733L4.99066 26.1912L1.88183 29.3C0.678522 30.5033 0.0101868 32.0859 0.000116039 33.7571C-0.00995474 35.4273 0.635797 36.9984 1.81866 38.1812L27.7772 12.2227L23.368 7.81348Z" fill="#A7F3D0"/>
<path d="M40 10.762L34.6188 5.38086L29.4629 9.35669L25.5273 14.4727L29.9362 18.8815L40 10.762Z" fill="#059669"/>
<path d="M29.2377 0L21.1182 10.0638L25.5273 14.473L34.6188 5.38116L29.2377 0Z" fill="#10B981"/>
<path d="M22.8616 21.8596L20.5011 19.499L14.1196 23.52L9.39941 30.6007L11.7599 32.9612L22.8616 21.8596Z" fill="#D9FBEB"/>
<path d="M4.99023 26.1915L16.0919 15.0898L20.5008 19.499L9.39941 30.6007L4.99023 26.1915Z" fill="#ECFDF5"/>
</g>
<defs>
<clipPath id="clip0">
<rect width="40" height="40" fill="white"/>
</clipPath>
</defs>
</svg>