<svg width="40" height="40" viewBox="0 0 40 40" fill="none" xmlns="http://www.w3.org/2000/svg">
<g clip-path="url(#clip0)">
<path d="M34.8853 7.46891L29.389 5.09998L27.4165 0H19.9427L18.3789 23.7354L19.9427 40H34.8853V7.46891Z" fill="#6EE7B7"/>
<path d="M5 0V40H19.9428V31.0623L19.1609 29.8904L19.9428 28.7185V0H5Z" fill="#A7F3D0"/>
<path d="M34.8849 7.46884H27.416V0L34.8849 7.46884Z" fill="#A7F3D0"/>
<path d="M11.3 11.2092H13.6437V8.64373H16.2092V6.29995H13.6437V3.73438H11.3V6.29995H8.73438V8.64373H11.3V11.2092Z" fill="#064E3B"/>
<path d="M24.9258 33.7021H31.1508V36.0459H24.9258V33.7021Z" fill="#059669"/>
<path d="M8.73438 33.7021H14.9594V36.0459H8.73438V33.7021Z" fill="#10B981"/>
<path d="M31.1513 13.7686H19.943L19.1611 14.9404L19.943 16.1123H31.1513V13.7686Z" fill="#059669"/>
<path d="M31.1513 18.752H19.943L19.1611 19.9238L19.943 21.0957H31.1513V18.752Z" fill="#059669"/>
<path d="M31.1513 23.7354H19.943L19.1611 24.9072L19.943 26.0791H31.1513V23.7354Z" fill="#059669"/>
<path d="M8.73438 28.7178H19.9426V31.0615H8.73438V28.7178Z" fill="#10B981"/>
<path d="M8.73438 13.7686H19.9426V16.1123H8.73438V13.7686Z" fill="#10B981"/>
<path d="M8.73438 18.752H19.9426V21.0957H8.73438V18.752Z" fill="#10B981"/>
<path d="M8.73438 23.7354H19.9426V26.0791H8.73438V23.7354Z" fill="#10B981"/>
</g>
<defs>
<clipPath id="clip0">
<rect width="40" height="40" fill="white"/>
</clipPath>
</defs>
</svg>