<svg width="40" height="40" viewBox="0 0 40 40" fill="none" xmlns="http://www.w3.org/2000/svg">
<path d="M8.26172 4.6875H15.293V7.03125H8.26172V4.6875Z" fill="#D1FAE5"/>
<path d="M8.26172 5.85938H15.293V7.03125H8.26172V5.85938Z" fill="#A7F3D0"/>
<path d="M39.9805 5.85938C39.9805 7.80461 38.4102 9.375 36.4648 9.375H29.4336V2.34375H36.4648C38.4102 2.34375 39.9805 3.91398 39.9805 5.85938Z" fill="#065F46"/>
<path d="M39.9805 5.85938C39.9805 7.80461 38.4102 9.375 36.4648 9.375H29.4336V5.85938H39.9805Z" fill="#0A4132"/>
<path d="M29.4336 2.34375V9.375H17.6367C15.6913 9.375 14.1211 7.80461 14.1211 5.85938C14.1211 3.91398 15.6913 2.34375 17.6367 2.34375H29.4336Z" fill="#D1FAE5"/>
<path d="M29.4336 5.85938V9.375H17.6367C15.6913 9.375 14.1211 7.80461 14.1211 5.85938H29.4336Z" fill="#A7F3D0"/>
<path d="M34.1211 16.4062C33.4648 16.4062 32.9492 16.9218 32.9492 17.5781V29.375C32.9492 31.3202 31.379 32.8906 29.4336 32.8906C27.4882 32.8906 25.918 31.3202 25.918 29.375V17.5781C25.918 16.9218 25.4024 16.4062 24.7461 16.4062L27.0898 15.2344H31.7773L34.1211 16.4062Z" fill="#D1FAE5"/>
<path d="M29.4336 32.8906V15.2344H31.7773L34.1211 16.4062C33.4648 16.4062 32.9492 16.9218 32.9492 17.5781V29.375C32.9492 31.3202 31.379 32.8906 29.4336 32.8906Z" fill="#A7F3D0"/>
<path d="M30.6055 22.3438V29.375C30.6055 30.0312 30.0899 30.5469 29.4336 30.5469C28.7773 30.5469 28.2617 30.0312 28.2617 29.375V22.3438H30.6055Z" fill="#34D399"/>
<path d="M30.6055 22.3438V29.375C30.6055 30.0312 30.0899 30.5469 29.4336 30.5469V22.3438H30.6055Z" fill="#10B981"/>
<path d="M21.2305 22.3438H23.5742V38.8281H21.2305V22.3438Z" fill="#065F46"/>
<path d="M35.293 22.3438H37.6367V38.8281H35.293V22.3438Z" fill="#0A4132"/>
<path d="M23.5742 14.0625H35.293V16.4062H23.5742V14.0625Z" fill="#6EE7B7"/>
<path d="M14.1212 29.375C14.1212 29.0184 14.0771 28.6727 14.0158 28.3333L16.4649 27.3184L15.5677 25.1532L13.1488 26.1555C12.7107 25.493 12.1437 24.926 11.4812 24.488L12.4835 22.069L10.3184 21.1719L9.30352 23.621C8.96422 23.5596 8.61844 23.5156 8.2618 23.5156C7.90516 23.5156 7.55945 23.5597 7.22008 23.621L6.20531 21.1719L4.04008 22.0691L5.04242 24.488C4.39344 24.917 3.83234 25.4675 3.3982 26.1128L0.858281 25.1452L0 27.3265L2.51289 28.2835C2.44563 28.638 2.40242 29.0012 2.40242 29.375C2.40242 29.7488 2.44563 30.112 2.51289 30.4665L0 31.4235L0.858281 33.6048L3.3982 32.6372C3.83234 33.2825 4.39344 33.833 5.04242 34.262L4.04008 36.6809L6.20531 37.5781L7.22016 35.129C7.55945 35.1904 7.90523 35.2344 8.26188 35.2344C8.61852 35.2344 8.96422 35.1903 9.30359 35.129L10.3184 37.5781L12.4836 36.6809L11.4813 34.262C12.1438 33.8239 12.7108 33.2569 13.1488 32.5944L15.5678 33.5967L16.465 31.4315L14.0159 30.4166C14.0772 30.0773 14.1212 29.7316 14.1212 29.375Z" fill="#D1FAE5"/>
<path d="M10.3183 37.5781L12.4835 36.6809L11.4812 34.262C12.1437 33.8239 12.7107 33.2569 13.1487 32.5944L15.5677 33.5967L16.4649 31.4315L14.0158 30.4166C14.0772 30.0773 14.1212 29.7316 14.1212 29.3749C14.1212 29.0183 14.0771 28.6726 14.0158 28.3332L16.4649 27.3184L15.5677 25.1531L13.1487 26.1555C12.7107 25.493 12.1437 24.9259 11.4812 24.4879L12.4835 22.0689L10.3183 21.1719L9.30344 23.621C8.96414 23.5596 8.61836 23.5156 8.26172 23.5156V35.2344C8.61836 35.2344 8.96406 35.1903 9.30344 35.129L10.3183 37.5781Z" fill="#A7F3D0"/>
<path d="M8.26172 32.8906C10.2033 32.8906 11.7773 31.3166 11.7773 29.375C11.7773 27.4334 10.2033 25.8594 8.26172 25.8594C6.32009 25.8594 4.74609 27.4334 4.74609 29.375C4.74609 31.3166 6.32009 32.8906 8.26172 32.8906Z" fill="#34D399"/>
<path d="M11.7773 29.375C11.7773 27.4334 10.2034 25.8594 8.26172 25.8594V32.8906C10.2034 32.8906 11.7773 31.3166 11.7773 29.375Z" fill="#10B981"/>
<path d="M8.26172 28.2031H7.08984V30.5469H8.26172H9.43359V28.2031H8.26172Z" fill="#D1FAE5"/>
<path d="M8.26172 28.2031H9.43359V30.5469H8.26172V28.2031Z" fill="#A7F3D0"/>
<path d="M9.22648 9.88055L8.26172 8.48438L7.29695 9.88055C6.53023 10.9917 4.74609 13.736 4.74609 15.2341C4.74609 17.1727 6.32313 18.8278 8.26172 18.8278C10.2003 18.8278 11.7773 17.1727 11.7773 15.2341C11.7773 13.736 9.99328 10.9917 9.22648 9.88055Z" fill="#065F46"/>
<path d="M11.7773 15.2341C11.7773 13.736 9.9932 10.9917 9.22648 9.88055L8.26172 8.48438V18.8278C10.2004 18.8278 11.7773 17.1727 11.7773 15.2341Z" fill="#0A4132"/>
<path d="M29.4336 14.0625H35.293V16.4062H29.4336V14.0625Z" fill="#10B981"/>
<path d="M18.8867 21.1719H39.9805V23.5156H18.8867V21.1719Z" fill="#047857"/>
<path d="M18.8867 37.6562H39.9805V40H18.8867V37.6562Z" fill="#047857"/>
<path d="M29.4336 21.1719H39.9805V23.5156H29.4336V21.1719Z" fill="#065F46"/>
<path d="M29.4336 37.6562H39.9805V40H29.4336V37.6562Z" fill="#065F46"/>
<path d="M28.2617 0H30.6055V11.7188H28.2617V0Z" fill="#047857"/>
<path d="M28.2617 5.85938H30.6055V11.7188H28.2617V5.85938Z" fill="#065F46"/>
</svg>