<svg width="40" height="40" viewBox="0 0 40 40" fill="none" xmlns="http://www.w3.org/2000/svg">
<path d="M20 40C31.0457 40 40 31.0457 40 20C40 8.9543 31.0457 0 20 0C8.9543 0 0 8.9543 0 20C0 31.0457 8.9543 40 20 40Z" fill="#065F46"/>
<path d="M40 20C40 9.01484 30.9852 0 20 0V40C30.9852 40 40 30.9852 40 20Z" fill="#0A4132"/>
<path d="M20 37.6562C29.7513 37.6562 37.6562 29.7513 37.6562 20C37.6562 10.2487 29.7513 2.34375 20 2.34375C10.2487 2.34375 2.34375 10.2487 2.34375 20C2.34375 29.7513 10.2487 37.6562 20 37.6562Z" fill="#D1FAE5"/>
<path d="M37.6562 20C37.6562 10.3069 29.6931 2.34375 20 2.34375V37.6562C29.6931 37.6562 37.6562 29.6931 37.6562 20Z" fill="#A7F3D0"/>
<path d="M18.8284 27.0312C18.8284 26.8125 18.8023 26.6002 18.7638 26.3924L20.973 25.1167L19.8011 23.0866L17.5815 24.3683C17.2592 24.0934 16.8912 23.8766 16.4845 23.7316V21.1719H14.1408V23.7315C13.7341 23.8766 13.3662 24.0933 13.0438 24.3682L10.8242 23.0865L9.65234 25.1166L11.8615 26.3923C11.8231 26.6002 11.7971 26.8125 11.7971 27.0312C11.7971 27.25 11.8231 27.4623 11.8616 27.6701L9.6525 28.9458L10.8244 30.9759L13.044 29.6942C13.3663 29.9691 13.7342 30.1859 14.1409 30.3309V32.8906H16.4847V30.331C16.8914 30.1859 17.2593 29.9692 17.5816 29.6943L19.8012 30.976L20.9731 28.9459L18.764 27.6702C18.8023 27.4623 18.8284 27.25 18.8284 27.0312Z" fill="#10B981"/>
<path d="M15.3125 28.2031C15.9597 28.2031 16.4844 27.6785 16.4844 27.0312C16.4844 26.384 15.9597 25.8594 15.3125 25.8594C14.6653 25.8594 14.1406 26.384 14.1406 27.0312C14.1406 27.6785 14.6653 28.2031 15.3125 28.2031Z" fill="#0A4132"/>
<path d="M35.2344 16.4841V14.1403H32.6748C32.5054 13.6653 32.2452 13.2348 31.9021 12.8786L32.767 11.1489L30.6705 10.1006L29.801 11.8396C29.6598 11.8224 29.5209 11.7966 29.375 11.7966C29.2291 11.7966 29.0902 11.8224 28.949 11.8396L28.0795 10.1006L25.983 11.1489L26.8479 12.8786C26.5048 13.2348 26.2446 13.6653 26.0752 14.1403H23.5156V16.4841H25.8594V18.8278H23.5156V21.1716H25.8594V23.5153H23.5156V25.8591H26.0752C26.2446 26.3342 26.5048 26.7646 26.8479 27.1208L25.983 28.8506L28.0795 29.8989L28.949 28.1598C29.0902 28.1771 29.2291 28.2028 29.375 28.2028C29.5209 28.2028 29.6598 28.1771 29.801 28.1598L30.6705 29.8989L32.767 28.8506L31.9021 27.1208C32.2452 26.7646 32.5054 26.3342 32.6748 25.8591H35.2344V23.5153H32.8906V21.1716H35.2344V18.8278H32.8906V16.4841H35.2344Z" fill="#10B981"/>
<path d="M29.375 14.1406C28.7284 14.1406 28.2031 14.6659 28.2031 15.3125V24.6875C28.2031 25.3341 28.7284 25.8594 29.375 25.8594C30.0216 25.8594 30.5469 25.3341 30.5469 24.6875V15.3125C30.5469 14.6659 30.0216 14.1406 29.375 14.1406Z" fill="#34D399"/>
<path d="M23.5156 7.10938V9.45312C22.1095 9.45312 20.8438 8.82023 20 7.83594C19.25 7.01555 18.8281 5.9375 18.8281 4.76562H21.1719C21.1719 6.05469 22.2266 7.10938 23.5156 7.10938Z" fill="#047857"/>
<path d="M4.76562 23.5156V21.1719C6.05766 21.1719 7.10938 20.1202 7.10938 18.8281H9.45312C9.45312 21.4134 7.35086 23.5156 4.76562 23.5156Z" fill="#10B981"/>
<path d="M25.8594 35.2344C23.2741 35.2344 21.1719 33.1321 21.1719 30.5469H23.5156C23.5156 31.8389 24.5673 32.8906 25.8594 32.8906V35.2344Z" fill="#0A4132"/>
<path d="M16.4846 12.9688C16.4846 12.75 16.4586 12.5377 16.4201 12.3299L18.6292 11.0542L17.4573 9.02406L15.2377 10.3058C14.9155 10.0309 14.5475 9.81414 14.1408 9.66906V7.10938H11.797V9.66898C11.3903 9.81406 11.0224 10.0308 10.7001 10.3057L8.48047 9.02398L7.30859 11.0541L9.51774 12.3298C9.47938 12.5377 9.45336 12.75 9.45336 12.9688C9.45336 13.1875 9.47938 13.3998 9.51789 13.6076L7.30875 14.8833L8.48063 16.9134L10.7002 15.6317C11.0225 15.9066 11.3905 16.1234 11.7972 16.2684V18.8281H14.1409V16.2685C14.5477 16.1234 14.9155 15.9067 15.2379 15.6318L17.4575 16.9135L18.6294 14.8834L16.4202 13.6077C16.4586 13.3998 16.4846 13.1875 16.4846 12.9688Z" fill="#34D399"/>
<path d="M12.9688 14.1406C13.616 14.1406 14.1406 13.616 14.1406 12.9688C14.1406 12.3215 13.616 11.7969 12.9688 11.7969C12.3215 11.7969 11.7969 12.3215 11.7969 12.9688C11.7969 13.616 12.3215 14.1406 12.9688 14.1406Z" fill="#A7F3D0"/>
<path d="M23.5156 7.10938V9.45312C22.1095 9.45312 20.8438 8.82023 20 7.83594V4.76562H21.1719C21.1719 6.05469 22.2266 7.10938 23.5156 7.10938Z" fill="#065F46"/>
</svg>