<svg width="64" height="64" viewBox="0 0 64 64" fill="none" xmlns="http://www.w3.org/2000/svg">
    <path d="M52.3947 40.7898V63.9986H48.175L43.9551 37.9766L52.3947 40.7898Z" fill="#065F46"/>
    <path d="M15.8233 37.9766L11.6035 40.7898V63.9986H48.175V37.9766H15.8233Z" fill="#059669"/>
    <path d="M41.8465 55.5602C43.5944 55.5602 45.0114 54.1433 45.0114 52.3953C45.0114 50.6474 43.5944 49.2305 41.8465 49.2305C40.0986 49.2305 38.6816 50.6474 38.6816 52.3953C38.6816 54.1433 40.0986 55.5602 41.8465 55.5602Z" fill="#0A4132"/>
    <path d="M32.3524 55.5602C34.1003 55.5602 35.5172 54.1433 35.5172 52.3953C35.5172 50.6474 34.1003 49.2305 32.3524 49.2305C30.6045 49.2305 29.1875 50.6474 29.1875 52.3953C29.1875 54.1433 30.6045 55.5602 32.3524 55.5602Z" fill="#0A4132"/>
    <path d="M52.3961 0V40.7912H48.1763L38.3301 20.3956L48.1763 0H52.3961Z" fill="#10B981"/>
    <path d="M48.175 0H11.6035V40.7912H48.175V32.3519L45.3618 20.3958L48.175 8.4395V0Z" fill="#6EE7B7"/>
    <path d="M24.9664 53.4498H20.0433C19.4607 53.4498 18.9883 52.9776 18.9883 52.3948C18.9883 51.8121 19.4607 51.3398 20.0433 51.3398H24.9664C25.549 51.3398 26.0214 51.8121 26.0214 52.3948C26.0214 52.9776 25.549 53.4498 24.9664 53.4498Z" fill="#D1FAE5"/>
    <path d="M43.9561 4.21875H39.7363V36.5704H43.9561C46.277 36.5704 48.1758 34.6715 48.1758 32.3506V8.4385C48.176 6.11762 46.277 4.21875 43.9561 4.21875Z" fill="white"/>
    <path d="M39.7362 4.21875H20.044C17.7231 4.21875 15.8242 6.11762 15.8242 8.4385V32.3506C15.8242 34.6715 17.7231 36.5704 20.044 36.5704H39.7362C42.0571 36.5704 43.956 34.6715 43.956 32.3506V8.4385C43.956 6.11762 42.0571 4.21875 39.7362 4.21875Z" fill="#ECFDF5"/>
</svg>
