<svg width="64" height="64" viewBox="0 0 64 64" fill="none" xmlns="http://www.w3.org/2000/svg">
    <path d="M49.4616 4.81953L46.6118 7.66641L43.2148 5.67891L47.4712 2.83203L49.4616 4.81953Z" fill="#0A4132"/>
    <path d="M44.6369 0L47.4711 2.8315L43.9375 6.36225L41.7871 2.847L44.6369 0Z" fill="#065F46"/>
    <path d="M46.6109 7.66719L38.6707 15.5991L33.8672 13.1882L44.6206 5.67969L46.6109 7.66719Z" fill="#064E3B"/>
    <path d="M41.7879 2.84766L44.6222 5.67903L35.8359 14.4555L33.8477 10.778L41.7879 2.84766Z" fill="#047857"/>
    <path d="M33.289 25.9023H27.7129V32.8636H33.289V25.9023Z" fill="#065F46"/>
    <path d="M18.8331 27.0521L25.2148 24.2695L22.986 19.1577L16.6042 21.9402L18.8331 27.0521Z" fill="#065F46"/>
    <path d="M40.5688 54.2031V62.6356H30.7227L34.9425 54.2031H40.5688Z" fill="#065F46"/>
    <path d="M34.9416 54.2031H27.166V62.6356H34.9416V54.2031Z" fill="#047857"/>
    <path d="M50.3552 22.7772L39.329 18.9414L38.7832 20.6462L48.7011 28.969L51.9602 38.5142L54.3402 38.1625V28.3783C54.3401 26.0602 52.5467 23.5395 50.3552 22.7772Z" fill="#10B981"/>
    <path d="M51.9599 29.5469V38.5125L47.2014 39.2158V31.8888C47.2014 30.7298 46.3884 29.2908 45.3939 28.693L37.6914 24.0555L38.7829 20.6445L48.7008 24.7475C50.4943 25.4552 51.9599 27.6157 51.9599 29.5469Z" fill="#34D399"/>
    <path d="M54.3393 40.2699V59.823L48.7129 61.2295V38.8633L54.3393 40.2699Z" fill="#10B981"/>
    <path d="M50.1193 39.2148H37.7539V61.2295H50.1193V39.2148Z" fill="#6EE7B7"/>
    <path d="M10.7468 59.8242C8.43853 59.8242 6.56641 61.6936 6.56641 64.0003H54.3399V59.8242H10.7468Z" fill="#0A4132"/>
    <path d="M22.4144 38.1602C21.8318 38.1602 21.3594 38.6324 21.3594 39.2152C21.3594 39.7979 21.8318 40.2702 22.4144 40.2702H54.34V38.1603H22.4144V38.1602Z" fill="#0A4132"/>
    <path d="M51.6074 43.9648V55.7633C54.8285 55.7211 57.4349 53.0908 57.4349 49.8641C57.4349 46.6373 54.8285 44.0071 51.6074 43.9648Z" fill="#0A4132"/>
    <path d="M51.607 43.9662C53.2766 44.0478 54.6214 46.6627 54.6214 49.8655C54.6214 53.0682 53.2766 55.6831 51.607 55.7647C51.5803 55.7661 51.5535 55.7661 51.5269 55.7661C48.2693 55.7661 45.6191 53.1188 45.6191 49.8655C45.6191 46.6121 48.2691 43.9648 51.5269 43.9648C51.5535 43.9648 51.5803 43.9648 51.607 43.9662Z" fill="#065F46"/>
    <path d="M38.6724 15.597L33.8478 10.7766C32.8154 10.3546 31.6844 10.1211 30.5 10.1211V27.7583C35.3753 27.7583 39.3291 23.8101 39.3291 18.939C39.3293 17.7561 39.0958 16.628 38.6724 15.597Z" fill="#A7F3D0"/>
    <path d="M30.4991 10.1211C25.6224 10.1211 21.6699 14.0693 21.6699 18.939C21.6699 23.81 25.6224 27.7583 30.4991 27.7583C33.0449 27.7583 35.1084 23.8101 35.1084 18.939C35.1086 14.0693 33.0451 10.1211 30.4991 10.1211Z" fill="#D1FAE5"/>
</svg>
