<svg width="40" height="40" viewBox="0 0 40 40" fill="none" xmlns="http://www.w3.org/2000/svg">
<g clip-path="url(#clip0)">
<path d="M16.962 26.3431L3.30475 40.0004L1.66412 38.3362L0 36.6953L13.6572 23.0381L15.3214 24.7022L16.962 26.3431Z" fill="#2B6455"/>
<path d="M16.9619 26.3431L3.30469 40.0003L1.66406 38.3362L15.3213 24.7021L16.9619 26.3431Z" fill="#064E3B"/>
<path d="M35.5265 4.47384C29.5728 -1.50302 19.9628 -1.47953 14.0091 4.47384C8.03194 10.4275 8.05574 20.0375 14.0091 25.9912C19.9628 31.968 29.5728 31.9449 35.5265 25.9912C41.5033 20.0375 41.4798 10.4275 35.5265 4.47384Z" fill="#10B981"/>
<path d="M35.5261 25.991C29.5724 31.9446 19.9625 31.9678 14.0088 25.991L35.5261 4.47363C41.4795 10.4273 41.503 20.0373 35.5261 25.991Z" fill="#059669"/>
<path d="M33.8854 6.11472C28.8461 1.07504 20.6893 1.07504 15.6496 6.11472C10.6103 11.1541 10.6103 19.3108 15.6496 24.3505C20.6893 29.3899 28.8461 29.3899 33.8854 24.3505C38.9248 19.3108 38.9248 11.1541 33.8854 6.11472Z" fill="#ECFDF5"/>
<path d="M33.8852 24.35C28.8458 29.3891 20.6891 29.3891 15.6494 24.35L33.8852 6.11426C38.9246 11.1536 38.9246 19.3104 33.8852 24.35Z" fill="#D9FBEB"/>
<path d="M17.9364 15.7178L19.5938 17.3749L17.9364 19.032L16.2793 17.3749L17.9364 15.7178Z" fill="#059669"/>
<path d="M24.5653 9.08887L26.2227 10.746L24.5653 12.4034L22.9082 10.746L24.5653 9.08887Z" fill="#059669"/>
<path d="M24.5656 15.7178L26.2227 17.3752L24.5656 19.0323L22.9082 17.3752L24.5656 15.7178Z" fill="#059669"/>
<path d="M20.0791 17.5771H22.4229V19.9209H20.0791V17.5771Z" fill="#059669"/>
<path d="M17.9364 9.08887L19.5935 10.7463L17.9364 12.4034L16.2793 10.7463L17.9364 9.08887Z" fill="#059669"/>
<path d="M20.0791 8.20117H22.4229V10.5449H20.0791V8.20117Z" fill="#059669"/>
<path d="M24.7676 12.8887H27.1113V15.2324H24.7676V12.8887Z" fill="#059669"/>
<path d="M15.3916 12.8887H17.7354V15.2324H15.3916V12.8887Z" fill="#059669"/>
<path d="M30.751 22.7883L29.649 20.584C28.6807 18.6465 29.0585 16.3152 30.5908 14.7839C31.6357 13.739 31.6357 12.0382 30.5908 10.9933L28.627 9.02948L30.2841 7.37207L32.2482 9.33618C34.2074 11.2954 34.2074 14.4818 32.2482 16.4413C31.4309 17.2582 31.2283 18.5024 31.7455 19.5358L32.8478 21.7401L30.751 22.7883Z" fill="#10B981"/>
<path d="M23.596 25.7806C22.3039 25.7806 21.252 24.7286 21.252 23.4365C21.252 22.1444 22.3039 21.0928 23.596 21.0928C24.8881 21.0928 25.9398 22.1444 25.9398 23.4365C25.9398 24.7286 24.8881 25.7806 23.596 25.7806Z" fill="#10B981"/>
<path d="M23.5957 4.68555H25.9394V7.0293H23.5957V4.68555Z" fill="#10B981"/>
<path d="M21.2513 18.7487C18.6658 18.7487 16.5635 16.6463 16.5635 14.0609C16.5635 11.4754 18.6658 9.37305 21.2513 9.37305C23.8367 9.37305 25.9391 11.4754 25.9391 14.0609C25.9391 16.6463 23.8367 18.7487 21.2513 18.7487Z" fill="#A7F3D0"/>
<path d="M21.0537 16.3011C19.7613 16.3011 18.71 15.2498 18.71 13.9573C18.71 12.6649 19.7613 11.6133 21.0537 11.6133C22.3461 11.6133 23.3978 12.6649 23.3978 13.9573C23.3978 15.2498 22.3461 16.3011 21.0537 16.3011Z" fill="#059669"/>
</g>
<defs>
<clipPath id="clip0">
<rect width="40" height="40" fill="white"/>
</clipPath>
</defs>
</svg>