<svg width="64" height="64" viewBox="0 0 64 64" fill="none" xmlns="http://www.w3.org/2000/svg">
    <path d="M59 48.7199V63H54.7999L45 46L59 48.7199Z" fill="#059669"/>
    <path d="M10.0834 46V47.904L6 48.7199V63H55V46H10.0834Z" fill="#10B981"/>
    <path d="M59 1V49H54.9285L40 25L54.9285 1H59Z" fill="#6EE7B7"/>
    <path d="M55 1H6V49H55V1Z" fill="#A7F3D0"/>
    <path d="M32.5 43C42.7173 43 51 34.7173 51 24.5C51 14.2827 42.7173 6 32.5 6C22.2827 6 14 14.2827 14 24.5C14 34.7173 22.2827 43 32.5 43Z" fill="#10B981"/>
    <path d="M32.5 41C23.4019 41 16 33.5981 16 24.5C16 15.4019 23.4019 8 32.5 8C41.5981 8 49 15.4019 49 24.5C49 33.5981 41.5981 41 32.5 41Z" fill="#ECFDF5"/>
    <path d="M45.643 58.8915C47.3454 58.8915 48.7255 57.5114 48.7255 55.809C48.7255 54.1066 47.3454 52.7266 45.643 52.7266C43.9406 52.7266 42.5605 54.1066 42.5605 55.809C42.5605 57.5114 43.9406 58.8915 45.643 58.8915Z" fill="#064E3B"/>
    <path d="M18.9282 58.8915C20.6305 58.8915 22.0106 57.5114 22.0106 55.809C22.0106 54.1066 20.6305 52.7266 18.9282 52.7266C17.2258 52.7266 15.8457 54.1066 15.8457 55.809C15.8457 57.5114 17.2258 58.8915 18.9282 58.8915Z" fill="#064E3B"/>
    <path d="M38.9566 57H25.0435C24.4672 57 24 56.5524 24 56C24 55.4476 24.4672 55 25.0435 55H38.9565C39.5328 55 40 55.4476 40 56C40 56.5524 39.5329 57 38.9566 57Z" fill="#ECFDF5"/>
    <path d="M32.2867 17.1047C33.7999 17.1047 35.0266 15.878 35.0266 14.3649C35.0266 12.8517 33.7999 11.625 32.2867 11.625C30.7736 11.625 29.5469 12.8517 29.5469 14.3649C29.5469 15.878 30.7736 17.1047 32.2867 17.1047Z" fill="#059669"/>
    <path d="M23.3883 22.2414C24.9015 22.2414 26.1282 21.0148 26.1282 19.5016C26.1282 17.9884 24.9015 16.7617 23.3883 16.7617C21.8751 16.7617 20.6484 17.9884 20.6484 19.5016C20.6484 21.0148 21.8751 22.2414 23.3883 22.2414Z" fill="#059669"/>
    <path d="M23.3883 32.5188C24.9015 32.5188 26.1282 31.2921 26.1282 29.7789C26.1282 28.2657 24.9015 27.0391 23.3883 27.0391C21.8751 27.0391 20.6484 28.2657 20.6484 29.7789C20.6484 31.2921 21.8751 32.5188 23.3883 32.5188Z" fill="#059669"/>
    <path d="M32.2867 37.6555C33.7999 37.6555 35.0266 36.4288 35.0266 34.9156C35.0266 33.4025 33.7999 32.1758 32.2867 32.1758C30.7736 32.1758 29.5469 33.4025 29.5469 34.9156C29.5469 36.4288 30.7736 37.6555 32.2867 37.6555Z" fill="#059669"/>
    <path d="M41.1832 32.5188C42.6964 32.5188 43.9231 31.2921 43.9231 29.7789C43.9231 28.2657 42.6964 27.0391 41.1832 27.0391C39.67 27.0391 38.4434 28.2657 38.4434 29.7789C38.4434 31.2921 39.67 32.5188 41.1832 32.5188Z" fill="#059669"/>
    <path d="M41.1832 22.2414C42.6964 22.2414 43.9231 21.0148 43.9231 19.5016C43.9231 17.9884 42.6964 16.7617 41.1832 16.7617C39.67 16.7617 38.4434 17.9884 38.4434 19.5016C38.4434 21.0148 39.67 22.2414 41.1832 22.2414Z" fill="#059669"/>
</svg>
