<svg width="24" height="24" viewBox="0 0 24 24" fill="none" xmlns="http://www.w3.org/2000/svg">
    <path d="M22.1054 14.34L17.7604 12L22.1054 9.65999C22.2246 9.59577 22.3242 9.50048 22.3936 9.38423C22.463 9.26799 22.4997 9.13512 22.4997 8.99973C22.4997 8.86433 22.463 8.73146 22.3936 8.61522C22.3242 8.49897 22.2246 8.40368 22.1054 8.33946L12.3554 3.08946C12.2462 3.0305 12.124 2.99963 11.9998 2.99963C11.8757 2.99963 11.7535 3.0305 11.6443 3.08946L1.89426 8.33946C1.77506 8.40368 1.67548 8.49897 1.60606 8.61522C1.53665 8.73146 1.5 8.86433 1.5 8.99973C1.5 9.13512 1.53665 9.26799 1.60606 9.38423C1.67548 9.50048 1.77506 9.59577 1.89426 9.65999L6.23931 12L1.89426 14.34C1.77506 14.4042 1.67548 14.4995 1.60606 14.6157C1.53665 14.732 1.5 14.8649 1.5 15.0003C1.5 15.1356 1.53665 15.2685 1.60606 15.3848C1.67548 15.501 1.77506 15.5963 1.89426 15.6605L11.6443 20.9105C11.7535 20.9694 11.8757 21.0002 11.9998 21.0002C12.124 21.0002 12.2461 20.9694 12.3554 20.9105L22.1054 15.6605C22.2246 15.5963 22.3242 15.501 22.3936 15.3848C22.463 15.2685 22.4997 15.1356 22.4997 15.0003C22.4997 14.8649 22.463 14.732 22.3936 14.6157C22.3242 14.4995 22.2246 14.4042 22.1054 14.34ZM11.9998 4.60191L20.1678 8.99999L11.9998 13.3982L3.83188 8.99999L11.9998 4.60191ZM11.9998 19.3982L3.83188 15L7.82136 12.8518L11.6443 14.91C11.7535 14.9689 11.8757 14.9997 11.9998 14.9997C12.124 14.9997 12.2461 14.9689 12.3554 14.91L16.1783 12.8515L20.1678 15L11.9998 19.3982Z" fill="#047857"/>
</svg>
