<svg width="24" height="24" viewBox="0 0 24 24" fill="none" xmlns="http://www.w3.org/2000/svg">
<path d="M21 6.75H18.75V2.25H5.25V6.75H3C2.60218 6.75 2.22064 6.90804 1.93934 7.18934C1.65804 7.47064 1.5 7.85218 1.5 8.25V15.75C1.5 16.1478 1.65804 16.5294 1.93934 16.8107C2.22064 17.092 2.60218 17.25 3 17.25H5.25V21.75H18.75V17.25H21C21.3978 17.25 21.7794 17.092 22.0607 16.8107C22.342 16.5294 22.5 16.1478 22.5 15.75V8.25C22.5 7.85218 22.342 7.47064 22.0607 7.18934C21.7794 6.90804 21.3978 6.75 21 6.75ZM6.75 3.75H17.25V6.75H6.75V3.75ZM17.25 20.25H6.75V12.75H17.25V20.25ZM21 15.75H18.75V11.25H5.25V15.75H3V8.25H21V15.75Z" fill="#047857"/>
</svg>