<svg width="24" height="24" viewBox="0 0 24 24" fill="none" xmlns="http://www.w3.org/2000/svg">
    <path d="M21.6234 3.87735C21.0514 3.33174 20.2913 3.02734 19.5009 3.02734C18.7104 3.02734 17.9503 3.33174 17.3784 3.87735L0.255859 20.9998H7.19336C8.186 20.9996 9.13807 20.6059 9.84086 19.9048L21.6234 8.12234C21.9023 7.84373 22.1236 7.51286 22.2745 7.14867C22.4255 6.78447 22.5032 6.39409 22.5032 5.99985C22.5032 5.6056 22.4255 5.21522 22.2745 4.85102C22.1236 4.48683 21.9023 4.15596 21.6234 3.87735ZM9.21836 14.1598L10.7859 12.5923L12.9084 14.7148L11.3409 16.2823L9.21836 14.1598ZM8.78336 18.8398C8.36181 19.2619 7.7899 19.4993 7.19336 19.4998H3.87836L8.16086 15.2173L10.2834 17.3398L8.78336 18.8398ZM20.5584 7.05734L13.9659 13.6573L11.8434 11.5348L18.4434 4.94235C18.7244 4.66297 19.1046 4.50616 19.5009 4.50616C19.8971 4.50616 20.2773 4.66297 20.5584 4.94235C20.8377 5.22339 20.9945 5.60357 20.9945 5.99985C20.9945 6.39612 20.8377 6.7763 20.5584 7.05734Z" fill="#047857"/>
</svg>
