<svg width="24" height="24" viewBox="0 0 24 24" fill="none" xmlns="http://www.w3.org/2000/svg">
<path d="M20.7823 3.21745C20.681 3.1167 20.5532 3.04695 20.4137 3.01639C20.2742 2.98584 20.1288 2.99574 19.9948 3.04495L3.49476 9.04495C3.35246 9.09892 3.22995 9.19491 3.14349 9.32016C3.05704 9.44542 3.01074 9.59401 3.01074 9.7462C3.01074 9.89839 3.05704 10.047 3.14349 10.1722C3.22995 10.2975 3.35246 10.3935 3.49476 10.4474L9.93726 13.0199L14.6923 8.24995L15.7498 9.30745L10.9723 14.0849L13.5523 20.5275C13.6078 20.667 13.704 20.7866 13.8284 20.8709C13.9528 20.9551 14.0995 21.0001 14.2498 20.9999C14.4013 20.9968 14.5484 20.9479 14.6716 20.8595C14.7947 20.7711 14.8882 20.6475 14.9398 20.5049L20.9398 4.00495C20.9909 3.87226 21.0032 3.72777 20.9753 3.58834C20.9474 3.44891 20.8805 3.32028 20.7823 3.21745Z" fill="white"/>
</svg>