<svg width="24" height="24" viewBox="0 0 24 24" fill="none" xmlns="http://www.w3.org/2000/svg">
    <path fill-rule="evenodd" clip-rule="evenodd" d="M21.3145 8.31877C21.4129 8.36408 21.5003 8.43018 21.5707 8.5125C21.6422 8.59363 21.6953 8.68925 21.7263 8.79281C21.7574 8.89637 21.7657 9.00543 21.7507 9.1125L20.3557 18.225C20.3014 18.5827 20.1198 18.9087 19.8441 19.143C19.5685 19.3773 19.2174 19.5041 18.8557 19.5H5.16068C4.79893 19.5041 4.4479 19.3773 4.17225 19.143C3.89661 18.9087 3.71492 18.5827 3.66068 18.225L2.25068 9.1125C2.23437 9.00501 2.24161 8.89526 2.27193 8.79084C2.30224 8.68643 2.35489 8.58986 2.42623 8.50782C2.49757 8.42578 2.5859 8.36022 2.68509 8.31571C2.78428 8.27119 2.89196 8.24877 3.00068 8.25H7.50068V5.25C7.50068 4.65326 7.73773 4.08097 8.15969 3.65901C8.58165 3.23705 9.15394 3 9.75068 3H14.2507C14.8474 3 15.4197 3.23705 15.8417 3.65901C16.2636 4.08097 16.5007 4.65326 16.5007 5.25V8.25H21.0007C21.109 8.24999 21.2161 8.27345 21.3145 8.31877ZM9.22035 4.71967C9.0797 4.86032 9.00068 5.05109 9.00068 5.25V8.25H15.0007V5.25C15.0007 5.05109 14.9217 4.86032 14.781 4.71967C14.6404 4.57902 14.4496 4.5 14.2507 4.5H9.75068C9.55177 4.5 9.361 4.57902 9.22035 4.71967ZM9.30799 12.6925L11.2505 14.635L15.443 10.4425L16.5005 11.5L11.2505 16.75L8.25049 13.75L9.30799 12.6925Z" fill="#047857"/>
</svg>
