<svg width="24" height="24" viewBox="0 0 24 24" fill="none" xmlns="http://www.w3.org/2000/svg">
    <path d="M15.75 18H12.75V21H15.75V18Z" fill="#047857"/>
    <path d="M21 18H18V21H21V18Z" fill="#047857"/>
    <path d="M15.75 12.75H12.75V15.75H15.75V12.75Z" fill="#047857"/>
    <path d="M21 12.75H18V15.75H21V12.75Z" fill="#047857"/>
    <path d="M21 8.25H16.5V5.25C16.5 3.975 15.525 3 14.25 3H9.75C8.475 3 7.5 3.975 7.5 5.25V8.25H3C2.55 8.25 2.25 8.55 2.25 9C2.25 9.075 2.25 9.075 2.25 9.15L3.675 18.225C3.75 18.975 4.425 19.5 5.175 19.5H11.25V18H5.175L3.9 9.75H21V8.25ZM9 5.25C9 4.8 9.3 4.5 9.75 4.5H14.25C14.7 4.5 15 4.8 15 5.25V8.25H9V5.25Z" fill="#047857"/>
</svg>
