<svg width="24" height="24" viewBox="0 0 24 24" fill="none" xmlns="http://www.w3.org/2000/svg">
    <path d="M21.5697 8.5125C21.4993 8.43018 21.4119 8.36408 21.3135 8.31877C21.2151 8.27345 21.108 8.24999 20.9997 8.25H16.4997V5.25C16.4997 4.65326 16.2627 4.08097 15.8407 3.65901C15.4187 3.23705 14.8464 3 14.2497 3H9.7497C9.15297 3 8.58067 3.23705 8.15871 3.65901C7.73676 4.08097 7.4997 4.65326 7.4997 5.25V8.25H2.9997C2.89099 8.24877 2.7833 8.27119 2.68411 8.31571C2.58492 8.36022 2.4966 8.42578 2.42526 8.50782C2.35392 8.58986 2.30126 8.68643 2.27095 8.79084C2.24064 8.89526 2.23339 9.00501 2.2497 9.1125L3.6597 18.225C3.71395 18.5827 3.89563 18.9087 4.17127 19.143C4.44692 19.3773 4.79796 19.5041 5.1597 19.5H18.8547C19.2164 19.5041 19.5675 19.3773 19.8431 19.143C20.1188 18.9087 20.3005 18.5827 20.3547 18.225L21.7497 9.1125C21.7647 9.00543 21.7564 8.89637 21.7253 8.79281C21.6943 8.68925 21.6412 8.59363 21.5697 8.5125ZM8.9997 5.25C8.9997 5.05109 9.07872 4.86032 9.21937 4.71967C9.36003 4.57902 9.55079 4.5 9.7497 4.5H14.2497C14.4486 4.5 14.6394 4.57902 14.78 4.71967C14.9207 4.86032 14.9997 5.05109 14.9997 5.25V8.25H8.9997V5.25ZM18.8547 18H5.1447L3.8772 9.75H20.1222L18.8547 18Z" fill="#047857"/>
</svg>