<svg width="24" height="24" viewBox="0 0 24 24" fill="none" xmlns="http://www.w3.org/2000/svg">
    <path d="M3.75 20.25H1.5V22.5H3.75V20.25Z" fill="#047857"/>
    <path d="M22.2831 5.46761L18.5331 1.71761C18.3926 1.57792 18.2025 1.49951 18.0043 1.49951C17.8062 1.49951 17.6161 1.57792 17.4756 1.71761L15.0006 4.19261L14.0331 3.21761L12.9681 4.28261L13.9431 5.25011L6.21809 12.9676C6.14858 13.0377 6.09359 13.1208 6.05627 13.2122C6.01894 13.3036 6.00002 13.4014 6.00059 13.5001V14.6926L3.96809 16.7176C3.82841 16.8581 3.75 17.0482 3.75 17.2464C3.75 17.4445 3.82841 17.6346 3.96809 17.7751L6.21809 20.0251C6.35862 20.1648 6.54871 20.2432 6.74684 20.2432C6.94498 20.2432 7.13507 20.1648 7.27559 20.0251L9.30809 18.0001H10.5006C10.5993 18.0007 10.6971 17.9818 10.7885 17.9444C10.8799 17.9071 10.963 17.8521 11.0331 17.7826L18.7506 10.0576L19.7181 11.0326L20.7831 9.96761L19.8081 9.00011L22.2831 6.53261C22.4228 6.39208 22.5012 6.202 22.5012 6.00386C22.5012 5.80572 22.4228 5.61563 22.2831 5.47511V5.46761ZM10.1931 16.5001H8.69309L6.75059 18.4426L5.55809 17.2501L7.50059 15.3076V13.8076L15.0006 6.30761L17.6931 9.00011L10.1931 16.5001ZM18.7506 7.94261L16.0581 5.25011L18.0006 3.30761L20.6931 6.00011L18.7506 7.94261Z" fill="#047857"/>
</svg>
