<svg width="24" height="24" viewBox="0 0 24 24" fill="none" xmlns="http://www.w3.org/2000/svg">
    <path d="M21.7492 20.6894L16.0851 15.0253C17.4462 13.3913 18.1249 11.2955 17.98 9.17387C17.8352 7.05224 16.878 5.06812 15.3075 3.63426C13.737 2.20041 11.6742 1.42721 9.54821 1.47552C7.42218 1.52384 5.39663 2.38993 3.89292 3.89365C2.3892 5.39736 1.5231 7.42292 1.47479 9.54894C1.42648 11.675 2.19967 13.7378 3.63353 15.3082C5.06738 16.8787 7.05151 17.8359 9.17314 17.9808C11.2948 18.1256 13.3906 17.4469 15.0246 16.0859L20.6886 21.7499L21.7492 20.6894ZM2.9992 9.74993C2.9992 8.41491 3.39508 7.10987 4.13678 5.99983C4.87848 4.8898 5.93269 4.02464 7.16609 3.51375C8.39949 3.00285 9.75669 2.86918 11.0661 3.12963C12.3754 3.39008 13.5782 4.03296 14.5222 4.97696C15.4662 5.92097 16.1091 7.1237 16.3695 8.43307C16.63 9.74245 16.4963 11.0996 15.9854 12.333C15.4745 13.5664 14.6093 14.6207 13.4993 15.3624C12.3893 16.1041 11.0842 16.4999 9.7492 16.4999C7.9596 16.4979 6.24386 15.7862 4.97842 14.5207C3.71298 13.2553 3.00119 11.5395 2.9992 9.74993Z" fill="#047857"/>
</svg>
