<svg width="24" height="24" viewBox="0 0 24 24" fill="none" xmlns="http://www.w3.org/2000/svg">
    <path d="M5.77539 3.52344C4.91516 4.1836 4.157 4.96703 3.52539 5.84844L4.72539 6.74844C5.27625 5.98453 5.93281 5.30272 6.67539 4.72344L5.77539 3.52344Z" fill="#047857"/>
    <path d="M3.45087 9.22344L2.02587 8.77344C1.66361 9.80946 1.48592 10.901 1.50087 11.9984H3.00087C2.99777 11.055 3.1498 10.1175 3.45087 9.22344Z" fill="#047857"/>
    <path d="M2.02539 15.3016C2.37324 16.3474 2.8791 17.3338 3.52539 18.2266L4.72539 17.3266C4.18317 16.5674 3.75372 15.7338 3.45039 14.8516L2.02539 15.3016Z" fill="#047857"/>
    <path d="M5.84961 20.4734C6.74238 21.1197 7.7288 21.6256 8.77461 21.9734L9.22461 20.5484C8.3424 20.2451 7.50875 19.8157 6.74961 19.2734L5.84961 20.4734Z" fill="#047857"/>
    <path d="M8.77539 2.02587L9.22539 3.45087C10.1195 3.1498 11.057 2.99777 12.0004 3.00087V1.50087C10.903 1.48592 9.81141 1.66361 8.77539 2.02587Z" fill="#047857"/>
    <path d="M18.15 20.475C19.0334 19.8166 19.8166 19.0334 20.475 18.15L19.275 17.25C18.7173 18.0329 18.0329 18.7173 17.25 19.275L18.15 20.475Z" fill="#047857"/>
    <path d="M20.5508 14.775L21.9758 15.225C22.302 14.1801 22.4787 13.0944 22.5008 12H21.0008C21.0039 12.9434 20.8519 13.8809 20.5508 14.775Z" fill="#047857"/>
    <path d="M21.8992 8.69844C21.5514 7.65262 21.0455 6.66621 20.3992 5.77344L19.1992 6.67344C19.7414 7.43258 20.1709 8.26623 20.4742 9.14844L21.8992 8.69844Z" fill="#047857"/>
    <path d="M18.0742 3.44922C17.1815 2.80293 16.195 2.29707 15.1492 1.94922L14.6992 3.37422C15.5814 3.67754 16.4151 4.107 17.1742 4.64922L18.0742 3.44922Z" fill="#047857"/>
    <path d="M15.225 21.9758L14.775 20.5508C13.8809 20.8519 12.9434 21.0039 12 21.0008V22.5008C13.09 22.4358 14.1706 22.2599 15.225 21.9758Z" fill="#047857"/>
    <path d="M12 19.5C10.5166 19.5 9.0666 19.0601 7.83323 18.236C6.59986 17.4119 5.63856 16.2406 5.07091 14.8701C4.50325 13.4997 4.35472 11.9917 4.64411 10.5368C4.9335 9.08197 5.64781 7.7456 6.6967 6.6967C7.7456 5.64781 9.08197 4.9335 10.5368 4.64411C11.9917 4.35472 13.4997 4.50325 14.8701 5.07091C16.2406 5.63856 17.4119 6.59986 18.236 7.83323C19.0601 9.0666 19.5 10.5166 19.5 12C19.4977 13.9884 18.7068 15.8948 17.3008 17.3008C15.8948 18.7068 13.9884 19.4977 12 19.5ZM12 6C10.8133 6 9.65328 6.3519 8.66658 7.01119C7.67989 7.67047 6.91085 8.60755 6.45673 9.7039C6.0026 10.8003 5.88378 12.0067 6.11529 13.1705C6.3468 14.3344 6.91825 15.4035 7.75736 16.2426C8.59648 17.0818 9.66558 17.6532 10.8295 17.8847C11.9933 18.1162 13.1997 17.9974 14.2961 17.5433C15.3925 17.0892 16.3295 16.3201 16.9888 15.3334C17.6481 14.3467 18 13.1867 18 12C17.9982 10.4093 17.3655 8.8842 16.2406 7.75938C15.1158 6.63456 13.5907 6.00183 12 6Z" fill="#047857"/>
</svg>
