<svg width="24" height="24" viewBox="0 0 24 24" fill="none" xmlns="http://www.w3.org/2000/svg">
    <path d="M19.0457 18.0001C19.4937 16.9247 19.6138 15.7409 19.3908 14.5975C19.1679 13.4541 18.6119 12.4021 17.7927 11.5738C18.0181 11.0059 18.0609 10.3819 17.9152 9.78854C17.7694 9.1952 17.4423 8.66205 16.9794 8.26328L19.0613 6.18135C19.3422 5.8998 19.5 5.51833 19.5 5.12063C19.5 4.72292 19.3422 4.34146 19.0613 4.0599L16.9402 1.93875C16.6587 1.65779 16.2772 1.5 15.8794 1.5C15.4817 1.5 15.1002 1.65779 14.8187 1.93875L4.93942 11.8181C4.65858 12.0996 4.50086 12.4811 4.50086 12.8788C4.50086 13.2765 4.65858 13.6579 4.93942 13.9395L7.06057 16.0607C7.34212 16.3416 7.72359 16.4993 8.1213 16.4993C8.51901 16.4993 8.90048 16.3416 9.18202 16.0607L12.7632 12.4791C13.271 13.0667 13.99 13.4303 14.7642 13.4911C15.5385 13.5518 16.3054 13.3048 16.8986 12.8036C17.5152 13.509 17.8938 14.3907 17.9808 15.3235C18.0677 16.2563 17.8586 17.1928 17.3831 18.0001H12V21.0001H3V22.5001H21V18.0001H19.0457ZM8.12108 15.0001L6 12.8786L7.40903 11.4698L9.53025 13.5909L8.12108 15.0001ZM12 10.5001C12.0011 10.6896 12.0202 10.8785 12.0571 11.0644L10.5908 12.5303L8.46952 10.4093L15.8795 2.99925L18.0007 5.1204L15.5641 7.55723C15.1302 7.47099 14.6825 7.48238 14.2534 7.59057C13.8244 7.69875 13.4248 7.90103 13.0836 8.18274C12.7424 8.46446 12.4682 8.81854 12.2808 9.21935C12.0934 9.62015 11.9974 10.0576 12 10.5001ZM15 12.0001C14.7033 12.0001 14.4133 11.9121 14.1666 11.7473C13.92 11.5825 13.7277 11.3482 13.6142 11.0741C13.5006 10.8 13.4709 10.4984 13.5288 10.2074C13.5867 9.91647 13.7296 9.6492 13.9393 9.43942C14.1491 9.22964 14.4164 9.08678 14.7074 9.0289C14.9983 8.97102 15.2999 9.00073 15.574 9.11426C15.8481 9.22779 16.0824 9.42005 16.2472 9.66672C16.412 9.9134 16.5 10.2034 16.5 10.5001C16.4995 10.8978 16.3414 11.279 16.0602 11.5602C15.779 11.8414 15.3977 11.9996 15 12.0001ZM19.5 21.0001H13.5V19.5001H19.5V21.0001Z" fill="#047857"/>
</svg>
