<svg width="24" height="24" viewBox="0 0 24 24" fill="none" xmlns="http://www.w3.org/2000/svg">
    <path d="M16.5 8.25H19.5C19.6989 8.25 19.8897 8.32902 20.0303 8.46967C20.171 8.61032 20.25 8.80109 20.25 9V10.5H15.75V9C15.75 8.80109 15.829 8.61032 15.9697 8.46967C16.1103 8.32902 16.3011 8.25 16.5 8.25Z" fill="#047857"/>
    <path d="M18 7.5C18.8284 7.5 19.5 6.82843 19.5 6C19.5 5.17157 18.8284 4.5 18 4.5C17.1716 4.5 16.5 5.17157 16.5 6C16.5 6.82843 17.1716 7.5 18 7.5Z" fill="#047857"/>
    <path d="M22.5 13.5H13.5C13.1023 13.4995 12.721 13.3414 12.4398 13.0602C12.1586 12.779 12.0005 12.3977 12 12V3C12.0004 2.6023 12.1586 2.221 12.4398 1.93978C12.721 1.65856 13.1023 1.5004 13.5 1.5H22.5C22.8977 1.50046 23.279 1.65864 23.5602 1.93984C23.8414 2.22105 23.9995 2.60232 24 3V12C23.9995 12.3977 23.8413 12.7789 23.5601 13.0601C23.2789 13.3413 22.8977 13.4995 22.5 13.5ZM13.5 3V12H22.5007L22.5 3H13.5Z" fill="#047857"/>
    <path d="M11.2502 22.5002H9.75018V19.5002C9.75562 19.2032 9.70115 18.9082 9.59 18.6327C9.47885 18.3573 9.31332 18.1071 9.10329 17.8971C8.89327 17.687 8.64306 17.5215 8.36762 17.4104C8.09217 17.2992 7.79715 17.2447 7.50018 17.2502H4.50018C4.20321 17.2447 3.90819 17.2992 3.63274 17.4104C3.3573 17.5215 3.10709 17.687 2.89707 17.8971C2.68704 18.1071 2.52151 18.3573 2.41036 18.6327C2.29922 18.9082 2.24474 19.2032 2.25018 19.5002V22.5002H0.750181V19.5002C0.745309 19.0064 0.83898 18.5165 1.02571 18.0594C1.21244 17.6022 1.48848 17.1869 1.83767 16.8377C2.18687 16.4885 2.6022 16.2124 3.05937 16.0257C3.51655 15.839 4.00637 15.7453 4.50018 15.7502H7.50018C7.99399 15.7453 8.48382 15.839 8.94099 16.0257C9.39816 16.2124 9.81349 16.4885 10.1627 16.8377C10.5119 17.1869 10.7879 17.6022 10.9747 18.0594C11.1614 18.5165 11.2551 19.0064 11.2502 19.5002V22.5002Z" fill="#047857"/>
    <path d="M6 8.25C6.59674 8.25 7.16903 8.48705 7.59099 8.90901C8.01295 9.33097 8.25 9.90326 8.25 10.5C8.25 11.0967 8.01295 11.669 7.59099 12.091C7.16903 12.5129 6.59674 12.75 6 12.75C5.40326 12.75 4.83097 12.5129 4.40901 12.091C3.98705 11.669 3.75 11.0967 3.75 10.5C3.75 9.90326 3.98705 9.33097 4.40901 8.90901C4.83097 8.48705 5.40326 8.25 6 8.25ZM6 6.75C5.00544 6.75 4.05161 7.14509 3.34835 7.84835C2.64509 8.55161 2.25 9.50544 2.25 10.5C2.25 11.4946 2.64509 12.4484 3.34835 13.1517C4.05161 13.8549 5.00544 14.25 6 14.25C6.99456 14.25 7.94839 13.8549 8.65165 13.1517C9.35491 12.4484 9.75 11.4946 9.75 10.5C9.75 9.50544 9.35491 8.55161 8.65165 7.84835C7.94839 7.14509 6.99456 6.75 6 6.75Z" fill="#047857"/>
</svg>
