<svg width="24" height="24" viewBox="0 0 24 24" fill="none" xmlns="http://www.w3.org/2000/svg">
<path d="M6.08326 2.38478C6.94662 1.80791 7.96165 1.5 9 1.5C10.3924 1.5 11.7277 2.05312 12.7123 3.03769C13.6969 4.02226 14.25 5.35761 14.25 6.75C14.25 7.78835 13.9421 8.80339 13.3652 9.66674C12.7883 10.5301 11.9684 11.203 11.0091 11.6004C10.0498 11.9977 8.99418 12.1017 7.97578 11.8991C6.95738 11.6965 6.02192 11.1965 5.28769 10.4623C4.55347 9.72809 4.05345 8.79262 3.85088 7.77422C3.64831 6.75582 3.75227 5.70022 4.14963 4.74091C4.54699 3.7816 5.2199 2.96166 6.08326 2.38478Z" fill="white"/>
<path d="M1.5 18.75V22.5H16.5V18.75C16.5 17.3576 15.9469 16.0223 14.9623 15.0377C13.9777 14.0531 12.6424 13.5 11.25 13.5H6.75C5.35761 13.5 4.02226 14.0531 3.03769 15.0377C2.05312 16.0223 1.5 17.3576 1.5 18.75Z" fill="white"/>
<path d="M18.75 12.1339L16.8075 10.1914L15.75 11.2489L18.75 14.2489L24 8.99891L22.9425 7.94141L18.75 12.1339Z" fill="white"/>
</svg>