<svg width="40" height="40" viewBox="0 0 40 40" fill="none" xmlns="http://www.w3.org/2000/svg">
<path d="M20 14.25C18.7574 14.25 17.75 13.2426 17.75 12C17.75 10.7574 18.7574 9.75 20 9.75C21.2426 9.75 22.25 10.7574 22.25 12C22.25 13.2426 21.2426 14.25 20 14.25Z" fill="#047857"/>
<path d="M20 22.25C18.7574 22.25 17.75 21.2426 17.75 20C17.75 18.7574 18.7574 17.75 20 17.75C21.2426 17.75 22.25 18.7574 22.25 20C22.25 21.2426 21.2426 22.25 20 22.25Z" fill="#047857"/>
<path d="M17.75 28C17.75 29.2426 18.7574 30.25 20 30.25C21.2426 30.25 22.25 29.2426 22.25 28C22.25 26.7574 21.2426 25.75 20 25.75C18.7574 25.75 17.75 26.7574 17.75 28Z" fill="#047857"/>
</svg>